<?xml version="1.0" encoding="iso-8859-1"?>
<!-- Generator: Adobe Illustrator 19.0.0, SVG Export Plug-In . SVG Version: 6.00 Build 0)  -->
<svg version="1.1" id="Layer_1" xmlns="http://www.w3.org/2000/svg" xmlns:xlink="http://www.w3.org/1999/xlink" x="0px" y="0px"
	 viewBox="0 0 512 512" style="enable-background:new 0 0 512 512;" xml:space="preserve">
<g>
	<g>
		<path d="M141.591,17.586C130.542,6.712,115.386,0,98.658,0c-33.81,0-61.217,27.408-61.217,61.217s27.408,61.217,61.217,61.217
			h79.429V85.598c0-9.533,1.729-18.668,4.876-27.117L141.591,17.586z"/>
	</g>
</g>
<g>
	<g>
		<path d="M413.342,0c-16.728,0-31.884,6.712-42.935,17.586l-41.371,40.893c3.148,8.451,4.876,17.586,4.876,27.118v36.837h79.429
			c33.81,0,61.217-27.408,61.217-61.217S447.152,0,413.342,0z"/>
	</g>
</g>
<g>
	<g>
		<path d="M256,41.077c-24.588,0-44.522,19.933-44.522,44.522v43.008h89.043V85.599C300.522,61.01,280.588,41.077,256,41.077z"/>
	</g>
</g>
<g>
	<g>
		<polygon points="333.913,278.261 333.913,398.519 256,340.084 178.087,398.519 178.087,278.261 55.652,278.261 55.652,512 
			456.348,512 456.348,278.261 		"/>
	</g>
</g>
<g>
	<g>
		<rect x="333.913" y="155.826" width="155.826" height="89.043"/>
	</g>
</g>
<g>
	<g>
		<rect x="22.261" y="155.826" width="155.826" height="89.043"/>
	</g>
</g>
<g>
	<g>
		<polygon points="211.478,155.826 211.478,331.737 256,298.346 300.522,331.737 300.522,155.826 		"/>
	</g>
</g>
<g>
</g>
<g>
</g>
<g>
</g>
<g>
</g>
<g>
</g>
<g>
</g>
<g>
</g>
<g>
</g>
<g>
</g>
<g>
</g>
<g>
</g>
<g>
</g>
<g>
</g>
<g>
</g>
<g>
</g>
</svg>
