<svg width="118" height="27" viewBox="0 0 118 27" fill="none" xmlns="http://www.w3.org/2000/svg">
                        <path d="M20.8706 7.89381H22.5298C22.9419 7.89381 23.2347 7.9155 23.4082 7.95888C23.6034 7.98057 23.7878 8.08901 23.9613 8.28421C24.1348 8.47942 24.2216 8.77222 24.2216 9.16262C24.2216 9.53134 24.1782 9.94343 24.0914 10.3989C24.0264 10.8327 23.8637 11.2122 23.6034 11.5376C23.3432 11.8629 23.0937 12.0473 22.8552 12.0907C22.6166 12.134 22.2587 12.1557 21.7816 12.1557H20.1549L19.5693 15.7344H21.2285C21.6406 15.7344 21.9334 15.7561 22.1069 15.7995C22.3021 15.8212 22.4864 15.9296 22.66 16.1248C22.8335 16.32 22.9202 16.6128 22.9202 17.0033C22.9202 17.372 22.8877 17.7407 22.8226 18.1094C22.7576 18.4781 22.6491 18.8143 22.4973 19.1179C22.3672 19.4216 22.1828 19.6385 21.9442 19.7686C21.5972 19.9421 21.1092 20.0289 20.4802 20.0289H18.8535C18.6366 21.3736 18.5065 22.2086 18.4631 22.534L18.398 22.8919C18.3113 23.369 18.2354 23.7052 18.1703 23.9004C18.1269 24.0956 18.0185 24.3342 17.845 24.6161C17.4979 25.115 16.6954 25.3644 15.4375 25.3644C14.1795 25.3644 13.5505 24.9632 13.5505 24.1607C13.5505 24.139 13.6373 23.5751 13.8108 22.4689L14.2012 20.0289H9.35367C9.13678 21.3736 9.00664 22.2086 8.96327 22.534L8.8982 22.8919C8.81144 23.369 8.73553 23.7052 8.67046 23.9004C8.62708 24.0956 8.51864 24.3342 8.34512 24.6161C7.9981 25.115 7.1956 25.3644 5.93763 25.3644C4.67966 25.3644 4.05067 24.9632 4.05067 24.1607C4.05067 24.139 4.13743 23.5751 4.31094 22.4689L4.70135 20.0289H2.55412C1.64318 20.0289 1.10095 19.8337 0.927435 19.4433C0.862368 19.2698 0.829834 19.0203 0.829834 18.695C0.829834 18.348 0.862368 17.9576 0.927435 17.5238C1.01419 17.0683 1.1877 16.6779 1.44797 16.3526C1.72993 16.0272 1.9902 15.8429 2.22878 15.7995C2.46736 15.7561 2.82524 15.7344 3.3024 15.7344H5.41709L6.0027 12.1557H3.85547C2.92284 12.1557 2.38061 11.9714 2.22878 11.6027C2.16372 11.4075 2.13118 11.1472 2.13118 10.8218C2.13118 10.4965 2.16372 10.1169 2.22878 9.68316C2.31554 9.22769 2.48905 8.83729 2.74932 8.51195C3.03128 8.18661 3.29155 8.00226 3.53013 7.95888C3.76871 7.9155 4.12658 7.89381 4.60375 7.89381H6.71844L7.27151 4.54283C7.2932 4.4127 7.31489 4.20665 7.33658 3.92469C7.37996 3.62105 7.41249 3.415 7.43418 3.30655C7.47756 3.17642 7.53178 3.00291 7.59685 2.78602C7.66192 2.56912 7.74867 2.4173 7.85712 2.33054C7.98725 2.24379 8.14992 2.13534 8.34512 2.0052C8.64877 1.81 9.20185 1.7124 10.0043 1.7124C10.8068 1.7124 11.3599 1.83169 11.6636 2.07027C11.9889 2.28716 12.1516 2.62335 12.1516 3.07882C12.1516 3.14389 12.0973 3.52345 11.9889 4.2175L11.3708 7.89381H16.2183L16.7714 4.54283C16.793 4.4127 16.8147 4.20665 16.8364 3.92469C16.8798 3.62105 16.9123 3.415 16.934 3.30655C16.9774 3.17642 17.0316 3.00291 17.0967 2.78602C17.1618 2.56912 17.2485 2.4173 17.357 2.33054C17.4871 2.24379 17.6498 2.13534 17.845 2.0052C18.1486 1.81 18.7017 1.7124 19.5042 1.7124C20.3067 1.7124 20.8598 1.83169 21.1634 2.07027C21.4887 2.28716 21.6514 2.62335 21.6514 3.07882C21.6514 3.14389 21.5972 3.52345 21.4887 4.2175L20.8706 7.89381ZM14.9169 15.7344L15.5025 12.1557H10.6876L10.0694 15.7344H14.9169Z" fill="#7FAEC3"/>
                        <path d="M36.2136 9.30799H40.9901C41.2279 9.30799 41.4036 9.31833 41.5173 9.339C41.6414 9.34934 41.781 9.39587 41.9361 9.47857C42.2152 9.62331 42.3548 10.0265 42.3548 10.6882C42.3548 11.4119 42.1635 11.8358 41.781 11.9598C41.6052 12.0219 41.3364 12.0529 40.9746 12.0529H34.8334C34.1097 12.0529 33.6859 11.8564 33.5618 11.4636C33.4998 11.2982 33.4688 11.0345 33.4688 10.6727V2.0503C33.4688 1.52303 33.567 1.16635 33.7634 0.980256C33.9598 0.783823 34.332 0.685607 34.88 0.685607H40.9901C41.2279 0.685607 41.4036 0.695945 41.5173 0.716623C41.6414 0.726961 41.781 0.773485 41.9361 0.856193C42.2152 1.00093 42.3548 1.40414 42.3548 2.06581C42.3548 2.78951 42.1635 3.21339 41.781 3.33745C41.6052 3.39949 41.3364 3.4305 40.9746 3.4305H36.2136V4.9968H39.2842C39.522 4.9968 39.6977 5.00714 39.8115 5.02781C39.9355 5.03815 40.0751 5.08467 40.2302 5.16738C40.5093 5.31212 40.6489 5.71533 40.6489 6.377C40.6489 7.1007 40.4525 7.52458 40.0596 7.64864C39.8838 7.71068 39.615 7.74169 39.2532 7.74169H36.2136V9.30799Z" fill="#7FAEC3"/>
                        <path d="M43.5286 10.4556C43.2598 10.1247 43.1254 9.83009 43.1254 9.57162C43.1254 9.30282 43.3477 8.95131 43.7923 8.51709C44.0507 8.26896 44.3247 8.1449 44.6142 8.1449C44.9037 8.1449 45.3069 8.40336 45.8238 8.92029C45.9685 9.09605 46.1753 9.26663 46.4441 9.43205C46.7129 9.58713 46.961 9.66467 47.1885 9.66467C48.15 9.66467 48.6307 9.2718 48.6307 8.48607C48.6307 8.24828 48.4963 8.05185 48.2275 7.89677C47.9691 7.73135 47.6434 7.61246 47.2505 7.54009C46.8577 7.46772 46.4338 7.35399 45.9789 7.19892C45.524 7.0335 45.1001 6.84223 44.7072 6.62512C44.3144 6.40801 43.9835 6.06684 43.7147 5.6016C43.4563 5.12603 43.327 4.55741 43.327 3.89574C43.327 2.98594 43.663 2.19504 44.335 1.52303C45.0174 0.840685 45.9427 0.499512 47.111 0.499512C47.7313 0.499512 48.2947 0.582221 48.8013 0.747638C49.3182 0.902717 49.6749 1.06297 49.8714 1.22838L50.2591 1.52303C50.5796 1.82285 50.7398 2.07615 50.7398 2.28292C50.7398 2.48969 50.6157 2.774 50.3676 3.13585C50.0161 3.65278 49.6542 3.91125 49.2821 3.91125C49.065 3.91125 48.7961 3.80786 48.4757 3.60109C48.4446 3.58041 48.3826 3.52872 48.2896 3.44601C48.2068 3.3633 48.1293 3.2961 48.0569 3.24441C47.8398 3.11001 47.5607 3.0428 47.2195 3.0428C46.8887 3.0428 46.6095 3.12551 46.3821 3.29093C46.165 3.44601 46.0564 3.66829 46.0564 3.95777C46.0564 4.23691 46.1857 4.46436 46.4441 4.64012C46.7129 4.81587 47.0438 4.93477 47.4366 4.9968C47.8295 5.05883 48.2585 5.15704 48.7238 5.29145C49.189 5.41551 49.6181 5.57059 50.0109 5.75668C50.4038 5.94278 50.7295 6.26844 50.9879 6.73368C51.2567 7.18858 51.3911 7.75203 51.3911 8.42404C51.3911 9.09605 51.2567 9.69051 50.9879 10.2074C50.7191 10.714 50.3676 11.1069 49.9334 11.386C49.096 11.934 48.2017 12.208 47.2505 12.208C46.7646 12.208 46.3045 12.1511 45.8703 12.0374C45.4361 11.9133 45.0846 11.7634 44.8158 11.5876C44.2678 11.2568 43.8853 10.9363 43.6682 10.6262L43.5286 10.4556Z" fill="#7FAEC3"/>
                        <path d="M59.5019 9.07537L59.781 8.87377C60.1325 8.66699 60.3807 8.56361 60.5254 8.56361C60.8459 8.56361 61.1922 8.85309 61.5644 9.43205C61.7919 9.7939 61.9056 10.0834 61.9056 10.3005C61.9056 10.5176 61.8332 10.6985 61.6885 10.8433C61.5541 10.988 61.3938 11.1172 61.2077 11.231C61.0216 11.3447 60.8407 11.4532 60.665 11.5566C60.4995 11.66 60.1532 11.7944 59.6259 11.9598C59.0987 12.1253 58.5869 12.208 58.0907 12.208C57.6047 12.208 57.1085 12.1459 56.6019 12.0219C56.1056 11.8875 55.5887 11.6704 55.0511 11.3705C54.5238 11.0604 54.0483 10.6882 53.6244 10.254C53.2005 9.80941 52.849 9.24596 52.5699 8.56361C52.301 7.87092 52.1666 7.12138 52.1666 6.31497C52.1666 5.50856 52.301 4.77969 52.5699 4.12836C52.8387 3.46669 53.1798 2.92391 53.5934 2.50003C54.0173 2.06581 54.498 1.70396 55.0356 1.41448C56.0488 0.856194 57.0671 0.577052 58.0907 0.577052C58.5766 0.577052 59.0677 0.654591 59.5639 0.80967C60.0705 0.95441 60.453 1.10432 60.7115 1.2594L61.0837 1.47651C61.2698 1.59023 61.4145 1.68328 61.5179 1.75565C61.7867 1.97276 61.9211 2.22089 61.9211 2.50003C61.9211 2.76883 61.8126 3.05314 61.5954 3.35296C61.1922 3.91125 60.8304 4.19039 60.5099 4.19039C60.3238 4.19039 60.0602 4.07666 59.719 3.84921C59.2848 3.4977 58.7058 3.32195 57.9821 3.32195C57.3101 3.32195 56.6484 3.55456 55.9971 4.0198C55.6869 4.24725 55.4285 4.56775 55.2217 4.98129C55.0149 5.39483 54.9115 5.86524 54.9115 6.39251C54.9115 6.90944 55.0149 7.37467 55.2217 7.78821C55.4285 8.20176 55.6921 8.52742 56.0126 8.76521C56.6433 9.22011 57.2998 9.44756 57.9821 9.44756C58.3026 9.44756 58.6024 9.4062 58.8816 9.32349C59.171 9.24079 59.3778 9.15808 59.5019 9.07537Z" fill="#7FAEC3"/>
                        <path d="M68.2593 0.546036C69.7895 0.546036 71.118 1.09915 72.2449 2.20538C73.3718 3.31161 73.9352 4.68664 73.9352 6.33047C73.9352 7.96397 73.3976 9.35968 72.3224 10.5176C71.2472 11.6652 69.9239 12.239 68.3524 12.239C66.7809 12.239 65.4421 11.6704 64.3358 10.5331C63.24 9.39587 62.692 8.04151 62.692 6.47005C62.692 5.61194 62.8471 4.8107 63.1573 4.06632C63.4674 3.31161 63.881 2.68095 64.3979 2.17436C64.9148 1.66777 65.5093 1.26974 66.1813 0.980256C66.8533 0.690776 67.546 0.546036 68.2593 0.546036ZM65.4369 6.39251C65.4369 7.31264 65.7316 8.06219 66.3209 8.64115C66.9205 9.20977 67.5873 9.49408 68.3214 9.49408C69.0554 9.49408 69.7171 9.21494 70.3064 8.65666C70.8957 8.09837 71.1903 7.34883 71.1903 6.40801C71.1903 5.4672 70.8905 4.71249 70.2909 4.14386C69.7016 3.57524 69.0399 3.29093 68.3059 3.29093C67.5718 3.29093 66.9102 3.58041 66.3209 4.15937C65.7316 4.72799 65.4369 5.47237 65.4369 6.39251Z" fill="#7FAEC3"/>
                        <path d="M83.6492 10.1299C83.8043 10.5021 83.8818 10.7709 83.8818 10.9363C83.8818 11.3292 83.5613 11.66 82.9203 11.9288C82.5895 12.0736 82.3207 12.1459 82.1139 12.1459C81.9175 12.1459 81.7521 12.0994 81.6177 12.0064C81.4936 11.903 81.4006 11.7996 81.3385 11.6962C81.2352 11.4998 80.832 10.5641 80.1289 8.88927L79.6482 8.92029H77.6942V10.6727C77.6942 10.9105 77.6839 11.0914 77.6632 11.2155C77.6528 11.3292 77.6063 11.4636 77.5236 11.6187C77.3789 11.8978 76.9757 12.0374 76.314 12.0374C75.5903 12.0374 75.1664 11.8461 75.0423 11.4636C74.9803 11.2878 74.9493 11.019 74.9493 10.6572V2.0503C74.9493 1.81251 74.9545 1.63676 74.9648 1.52303C74.9855 1.39897 75.0372 1.2594 75.1199 1.10432C75.2646 0.825178 75.6678 0.685607 76.3295 0.685607H79.6792C80.589 0.685607 81.4729 1.01644 82.331 1.67811C82.7446 1.99861 83.0858 2.43283 83.3546 2.98077C83.6234 3.52872 83.7578 4.13869 83.7578 4.8107C83.7578 5.97896 83.3701 6.94045 82.5947 7.69517C82.8221 8.24311 83.1736 9.05469 83.6492 10.1299ZM77.6942 6.1754H79.6792C79.979 6.1754 80.2788 6.06167 80.5787 5.83422C80.8785 5.60677 81.0284 5.2656 81.0284 4.8107C81.0284 4.3558 80.8785 4.01463 80.5787 3.78718C80.2788 3.54939 79.9687 3.4305 79.6482 3.4305H77.6942V6.1754Z" fill="#7FAEC3"/>
                        <path d="M87.4775 9.30799H92.2539C92.4917 9.30799 92.6674 9.31833 92.7812 9.339C92.9052 9.34934 93.0448 9.39587 93.1999 9.47857C93.479 9.62331 93.6186 10.0265 93.6186 10.6882C93.6186 11.4119 93.4273 11.8358 93.0448 11.9598C92.8691 12.0219 92.6002 12.0529 92.2384 12.0529H86.0973C85.3736 12.0529 84.9497 11.8564 84.8256 11.4636C84.7636 11.2982 84.7326 11.0345 84.7326 10.6727V2.0503C84.7326 1.52303 84.8308 1.16635 85.0272 0.980256C85.2237 0.783823 85.5959 0.685607 86.1438 0.685607H92.2539C92.4917 0.685607 92.6674 0.695945 92.7812 0.716623C92.9052 0.726961 93.0448 0.773485 93.1999 0.856193C93.479 1.00093 93.6186 1.40414 93.6186 2.06581C93.6186 2.78951 93.4273 3.21339 93.0448 3.33745C92.8691 3.39949 92.6002 3.4305 92.2384 3.4305H87.4775V4.9968H90.548C90.7858 4.9968 90.9616 5.00714 91.0753 5.02781C91.1994 5.03815 91.3389 5.08467 91.494 5.16738C91.7732 5.31212 91.9127 5.71533 91.9127 6.377C91.9127 7.1007 91.7163 7.52458 91.3234 7.64864C91.1477 7.71068 90.8789 7.74169 90.517 7.74169H87.4775V9.30799Z" fill="#7FAEC3"/>
                        <path d="M40.804 15.0418C40.9074 14.8557 41.0573 14.7317 41.2537 14.6696C41.4501 14.6076 41.6931 14.5766 41.9826 14.5766C42.2824 14.5766 42.5202 14.6024 42.6959 14.6541C42.882 14.7058 43.0164 14.7678 43.0991 14.8402C43.1922 14.9126 43.2594 15.0211 43.3007 15.1659C43.3628 15.3313 43.3938 15.5949 43.3938 15.9568V24.5637C43.3938 24.8118 43.3835 24.9927 43.3628 25.1064C43.3524 25.2202 43.3059 25.3546 43.2232 25.5096C43.0785 25.7888 42.6753 25.9284 42.0136 25.9284C41.6104 25.9284 41.3312 25.8973 41.1762 25.8353C41.0211 25.7733 40.8919 25.6751 40.7885 25.5407C38.4623 22.4391 36.9322 20.4127 36.1981 19.4616V24.5637C36.1981 24.8118 36.1878 24.9927 36.1671 25.1064C36.1568 25.2202 36.1103 25.3546 36.0276 25.5096C35.8828 25.7888 35.4796 25.9284 34.8179 25.9284C34.1769 25.9284 33.7841 25.7888 33.6393 25.5096C33.5566 25.3546 33.5049 25.215 33.4843 25.0909C33.4739 24.9669 33.4688 24.7859 33.4688 24.5482V15.8948C33.4688 15.5019 33.5153 15.2176 33.6083 15.0418C33.7117 14.8557 33.8616 14.7317 34.058 14.6696C34.2545 14.6076 34.5078 14.5766 34.8179 14.5766C35.1281 14.5766 35.371 14.6076 35.5468 14.6696C35.7329 14.7213 35.8621 14.7834 35.9345 14.8557C35.9759 14.8867 36.0948 15.0211 36.2912 15.2589C38.4726 18.2261 39.9304 20.1853 40.6644 21.1364V15.8948C40.6644 15.5019 40.7109 15.2176 40.804 15.0418Z" fill="#7FAEC3"/>
                        <path d="M47.3751 23.1835H52.1515C52.3893 23.1835 52.565 23.1938 52.6788 23.2145C52.8028 23.2248 52.9424 23.2713 53.0975 23.354C53.3766 23.4988 53.5162 23.902 53.5162 24.5637C53.5162 25.2874 53.3249 25.7112 52.9424 25.8353C52.7666 25.8973 52.4978 25.9284 52.136 25.9284H45.9949C45.2712 25.9284 44.8473 25.7319 44.7232 25.3391C44.6612 25.1736 44.6302 24.91 44.6302 24.5482V15.9258C44.6302 15.3985 44.7284 15.0418 44.9248 14.8557C45.1213 14.6593 45.4935 14.5611 46.0414 14.5611H52.1515C52.3893 14.5611 52.565 14.5714 52.6788 14.5921C52.8028 14.6024 52.9424 14.649 53.0975 14.7317C53.3766 14.8764 53.5162 15.2796 53.5162 15.9413C53.5162 16.665 53.3249 17.0889 52.9424 17.2129C52.7666 17.275 52.4978 17.306 52.136 17.306H47.3751V18.8723H50.4456C50.6834 18.8723 50.8592 18.8826 50.9729 18.9033C51.097 18.9136 51.2365 18.9601 51.3916 19.0429C51.6708 19.1876 51.8103 19.5908 51.8103 20.2525C51.8103 20.9762 51.6139 21.4001 51.221 21.5241C51.0453 21.5861 50.7765 21.6172 50.4146 21.6172H47.3751V23.1835Z" fill="#7FAEC3"/>
                        <path d="M68.1199 14.6231C68.8126 14.8712 69.1589 15.2021 69.1589 15.6156C69.1589 15.75 69.0969 16.0033 68.9728 16.3755L65.9953 24.9824C65.9746 25.0547 65.9385 25.1426 65.8868 25.246C65.8351 25.3494 65.6955 25.489 65.468 25.6647C65.2509 25.8301 64.9873 25.9128 64.6771 25.9128C64.3773 25.9128 64.1137 25.8301 63.8862 25.6647C63.6691 25.489 63.5244 25.3184 63.452 25.153L61.6376 19.8027C60.49 23.1938 59.9059 24.9203 59.8852 24.9824C59.8645 25.0444 59.818 25.1323 59.7456 25.246C59.6733 25.3597 59.5906 25.4631 59.4975 25.5562C59.2597 25.7939 58.9754 25.9128 58.6446 25.9128C58.3137 25.9128 58.0398 25.8353 57.8227 25.6802C57.6159 25.5251 57.4763 25.3701 57.4039 25.215L57.2954 24.9824L54.3024 16.3755C54.1886 16.0343 54.1318 15.781 54.1318 15.6156C54.1318 15.2021 54.4781 14.8764 55.1708 14.6386C55.4706 14.5352 55.7394 14.4835 55.9772 14.4835C56.2254 14.4835 56.4114 14.5662 56.5355 14.7317C56.6699 14.8971 56.7888 15.1504 56.8922 15.4915L58.5981 20.6712L60.2884 15.5691C60.4332 15.1349 60.6968 14.835 61.0793 14.6696C61.2447 14.5973 61.4567 14.5611 61.7151 14.5611C61.9839 14.5611 62.2321 14.649 62.4595 14.8247C62.687 14.9901 62.8317 15.1555 62.8937 15.321L64.6771 20.7022L66.383 15.4915C66.4657 15.2538 66.5329 15.078 66.5846 14.9643C66.6363 14.8506 66.7294 14.742 66.8638 14.6386C67.0085 14.5249 67.1843 14.468 67.391 14.468C67.5978 14.468 67.8408 14.5197 68.1199 14.6231Z" fill="#7FAEC3"/>
                        <path d="M70.1828 24.331C69.914 24.0002 69.7796 23.7056 69.7796 23.4471C69.7796 23.1783 70.0019 22.8268 70.4464 22.3926C70.7049 22.1444 70.9789 22.0204 71.2684 22.0204C71.5578 22.0204 71.961 22.2788 72.478 22.7958C72.6227 22.9715 72.8295 23.1421 73.0983 23.3075C73.3671 23.4626 73.6152 23.5401 73.8427 23.5401C74.8042 23.5401 75.2849 23.1473 75.2849 22.3615C75.2849 22.1238 75.1505 21.9273 74.8817 21.7722C74.6232 21.6068 74.2976 21.4879 73.9047 21.4156C73.5118 21.3432 73.088 21.2295 72.6331 21.0744C72.1782 20.909 71.7543 20.7177 71.3614 20.5006C70.9685 20.2835 70.6377 19.9423 70.3689 19.4771C70.1104 19.0015 69.9812 18.4329 69.9812 17.7712C69.9812 16.8614 70.3172 16.0705 70.9892 15.3985C71.6716 14.7162 72.5969 14.375 73.7651 14.375C74.3854 14.375 74.9489 14.4577 75.4555 14.6231C75.9724 14.7782 76.3291 14.9384 76.5255 15.1039L76.9132 15.3985C77.2337 15.6983 77.394 15.9516 77.394 16.1584C77.394 16.3652 77.2699 16.6495 77.0218 17.0113C76.6703 17.5282 76.3084 17.7867 75.9362 17.7867C75.7191 17.7867 75.4503 17.6833 75.1298 17.4766C75.0988 17.4559 75.0368 17.4042 74.9437 17.3215C74.861 17.2388 74.7835 17.1716 74.7111 17.1199C74.494 16.9855 74.2149 16.9183 73.8737 16.9183C73.5428 16.9183 73.2637 17.001 73.0363 17.1664C72.8191 17.3215 72.7106 17.5438 72.7106 17.8332C72.7106 18.1124 72.8398 18.3398 73.0983 18.5156C73.3671 18.6913 73.6979 18.8102 74.0908 18.8723C74.4837 18.9343 74.9127 19.0325 75.3779 19.1669C75.8432 19.291 76.2722 19.4461 76.6651 19.6322C77.058 19.8182 77.3836 20.1439 77.6421 20.6091C77.9109 21.064 78.0453 21.6275 78.0453 22.2995C78.0453 22.9715 77.9109 23.566 77.6421 24.0829C77.3733 24.5895 77.0218 24.9824 76.5876 25.2615C75.7501 25.8095 74.8558 26.0834 73.9047 26.0834C73.4188 26.0834 72.9587 26.0266 72.5245 25.9128C72.0903 25.7888 71.7388 25.6389 71.47 25.4631C70.922 25.1323 70.5395 24.8118 70.3224 24.5016L70.1828 24.331Z" fill="#7FAEC3"/>
                        <path d="M81.4572 23.3696C81.6329 23.5453 81.7208 23.9072 81.7208 24.4551V24.5171C81.7208 24.7653 81.7105 24.9514 81.6898 25.0754C81.6794 25.1891 81.6277 25.3287 81.5347 25.4941C81.3796 25.794 80.9867 25.9439 80.3561 25.9439C79.7358 25.9439 79.3222 25.8456 79.1155 25.6492C78.919 25.4528 78.8208 25.0806 78.8208 24.5326V24.4706C78.8208 24.2328 78.826 24.0519 78.8363 23.9278C78.857 23.8038 78.9087 23.6642 78.9914 23.5091C79.1465 23.199 79.5342 23.0439 80.1545 23.0439C80.7851 23.0439 81.2194 23.1524 81.4572 23.3696Z" fill="#7FAEC3"/>
                        <path d="M89.8361 22.9508L90.1153 22.7492C90.4668 22.5425 90.7149 22.4391 90.8597 22.4391C91.1801 22.4391 91.5265 22.7286 91.8987 23.3075C92.1261 23.6694 92.2398 23.9589 92.2398 24.176C92.2398 24.3931 92.1675 24.574 92.0227 24.7187C91.8883 24.8635 91.7281 24.9927 91.542 25.1064C91.3559 25.2202 91.175 25.3287 90.9992 25.4321C90.8338 25.5355 90.4875 25.6699 89.9602 25.8353C89.4329 26.0007 88.9212 26.0834 88.4249 26.0834C87.939 26.0834 87.4427 26.0214 86.9362 25.8973C86.4399 25.7629 85.923 25.5458 85.3854 25.246C84.8581 24.9358 84.3825 24.5637 83.9586 24.1294C83.5348 23.6849 83.1833 23.1214 82.9041 22.4391C82.6353 21.7464 82.5009 20.9968 82.5009 20.1904C82.5009 19.384 82.6353 18.6552 82.9041 18.0038C83.1729 17.3422 83.5141 16.7994 83.9276 16.3755C84.3515 15.9413 84.8323 15.5794 85.3699 15.2899C86.383 14.7317 87.4014 14.4525 88.4249 14.4525C88.9108 14.4525 89.4019 14.5301 89.8982 14.6851C90.4048 14.8299 90.7873 14.9798 91.0457 15.1349L91.4179 15.352C91.604 15.4657 91.7488 15.5587 91.8522 15.6311C92.121 15.8482 92.2554 16.0964 92.2554 16.3755C92.2554 16.6443 92.1468 16.9286 91.9297 17.2284C91.5265 17.7867 91.1646 18.0659 90.8441 18.0659C90.658 18.0659 90.3944 17.9521 90.0532 17.7247C89.619 17.3732 89.0401 17.1974 88.3164 17.1974C87.6443 17.1974 86.9827 17.43 86.3313 17.8953C86.0212 18.1227 85.7627 18.4432 85.556 18.8568C85.3492 19.2703 85.2458 19.7407 85.2458 20.268C85.2458 20.7849 85.3492 21.2501 85.556 21.6637C85.7627 22.0772 86.0264 22.4029 86.3469 22.6407C86.9775 23.0956 87.634 23.323 88.3164 23.323C88.6369 23.323 88.9367 23.2817 89.2158 23.199C89.5053 23.1163 89.7121 23.0335 89.8361 22.9508Z" fill="#7FAEC3"/>
                        <path d="M98.5936 14.4215C100.124 14.4215 101.452 14.9746 102.579 16.0808C103.706 17.1871 104.269 18.5621 104.269 20.2059C104.269 21.8394 103.732 23.2352 102.657 24.3931C101.581 25.5407 100.258 26.1144 98.6867 26.1144C97.1152 26.1144 95.7763 25.5458 94.6701 24.4086C93.5742 23.2713 93.0263 21.917 93.0263 20.3455C93.0263 19.4874 93.1813 18.6862 93.4915 17.9418C93.8017 17.1871 94.2152 16.5564 94.7321 16.0498C95.2491 15.5432 95.8435 15.1452 96.5155 14.8557C97.1876 14.5662 97.8802 14.4215 98.5936 14.4215ZM95.7712 20.268C95.7712 21.1881 96.0658 21.9377 96.6551 22.5166C97.2548 23.0852 97.9216 23.3696 98.6556 23.3696C99.3897 23.3696 100.051 23.0904 100.641 22.5321C101.23 21.9738 101.525 21.2243 101.525 20.2835C101.525 19.3427 101.225 18.588 100.625 18.0193C100.036 17.4507 99.3742 17.1664 98.6401 17.1664C97.9061 17.1664 97.2444 17.4559 96.6551 18.0348C96.0658 18.6035 95.7712 19.3478 95.7712 20.268Z" fill="#7FAEC3"/>
                        <path d="M117.364 14.9953C117.447 15.1504 117.493 15.2899 117.504 15.414C117.524 15.5381 117.535 15.719 117.535 15.9568V24.5637C117.535 25.277 117.338 25.6957 116.945 25.8198C116.749 25.8818 116.501 25.9128 116.201 25.9128C115.901 25.9128 115.663 25.887 115.488 25.8353C115.312 25.7836 115.178 25.7216 115.085 25.6492C114.991 25.5768 114.919 25.4735 114.867 25.3391C114.816 25.1633 114.79 24.8945 114.79 24.5326V19.3375C114.531 19.658 114.154 20.1698 113.658 20.8728C113.162 21.5655 112.846 21.9997 112.712 22.1754C112.577 22.3512 112.484 22.4753 112.433 22.5476C112.381 22.6097 112.252 22.7027 112.045 22.8268C111.849 22.9405 111.631 22.9974 111.394 22.9974C111.166 22.9974 110.954 22.9457 110.758 22.8423C110.572 22.7286 110.437 22.62 110.355 22.5166L110.231 22.346C110.024 22.0876 109.615 21.5396 109.005 20.7022C108.395 19.8544 108.065 19.3995 108.013 19.3375V24.5637C108.013 24.8014 108.003 24.9824 107.982 25.1064C107.972 25.2202 107.925 25.3494 107.842 25.4941C107.687 25.7733 107.284 25.9128 106.633 25.9128C106.002 25.9128 105.609 25.7733 105.454 25.4941C105.371 25.3494 105.32 25.215 105.299 25.0909C105.289 24.9669 105.284 24.7808 105.284 24.5326V15.9258C105.284 15.688 105.289 15.5122 105.299 15.3985C105.32 15.2744 105.371 15.1349 105.454 14.9798C105.609 14.711 106.012 14.5766 106.664 14.5766C106.943 14.5766 107.181 14.6128 107.377 14.6851C107.584 14.7472 107.718 14.8144 107.78 14.8867L107.873 14.9798L111.394 19.6011C113.151 17.275 114.325 15.7397 114.914 14.9953C115.09 14.7162 115.503 14.5766 116.155 14.5766C116.816 14.5766 117.219 14.7162 117.364 14.9953Z" fill="#7FAEC3"/>
                        </svg>